<?xml version="1.0" standalone="no"?>
<!DOCTYPE svg PUBLIC "-//W3C//DTD SVG 20010904//EN"
 "http://www.w3.org/TR/2001/REC-SVG-20010904/DTD/svg10.dtd">
<svg version="1.0" xmlns="http://www.w3.org/2000/svg"
 width="150.000000pt" height="150.000000pt" viewBox="0 0 150.000000 150.000000"
 preserveAspectRatio="xMidYMid meet">
<metadata>
Created by potrace 1.11, written by Peter Selinger 2001-2013
</metadata>
<g transform="translate(0.000000,150.000000) scale(0.100000,-0.100000)"
fill="#000000" stroke="none">
<path d="M649 1496 c-2 -2 -24 -7 -48 -11 -112 -17 -270 -98 -361 -187 -105
-102 -160 -188 -206 -323 -39 -117 -43 -282 -9 -414 61 -233 230 -423 456
-511 100 -38 115 -41 244 -46 219 -7 402 64 552 214 106 107 182 246 208 382
13 66 13 247 0 310 -40 196 -189 395 -375 498 -105 58 -202 84 -336 88 -66 2
-122 2 -125 0z m266 -71 c495 -114 696 -723 369 -1119 -368 -447 -1098 -264
-1214 303 -102 501 345 932 845 816z"/>
<path d="M738 1243 c-15 -4 -16 -45 -16 -491 0 -268 1 -490 4 -493 2 -3 14 -4
26 -2 l23 4 0 490 c0 321 -3 490 -10 492 -5 2 -17 2 -27 0z"/>
<path d="M1027 1239 c-48 -8 -91 -29 -115 -58 -75 -91 -58 -224 37 -286 96
-64 234 -23 278 84 56 132 -59 281 -200 260z m69 -60 c39 -12 68 -44 84 -91
30 -96 -61 -191 -160 -166 -49 13 -86 52 -98 105 -13 59 16 119 70 143 45 20
63 21 104 9z"/>
<path d="M276 618 c23 -25 356 -358 358 -358 1 0 2 85 2 189 l0 190 -189 0
-190 0 19 -21z m291 -37 c8 -1 13 -32 15 -96 2 -52 2 -95 1 -95 -10 0 -190
189 -183 192 8 2 119 2 167 -1z"/>
</g>
</svg>
