<?xml version="1.0" encoding="utf-8"?>
<!-- Generator: Adobe Illustrator 21.0.2, SVG Export Plug-In . SVG Version: 6.00 Build 0)  -->
<svg version="1.1" xmlns="http://www.w3.org/2000/svg" xmlns:xlink="http://www.w3.org/1999/xlink" x="0px" y="0px"
	 viewBox="0 0 2870.1 1000" style="enable-background:new 0 0 2870.1 1000;" xml:space="preserve">
<style type="text/css">
	.st0{fill:#30271F;}
	.st1{display:none;fill:none;stroke:#EC008C;stroke-miterlimit:10;}
	.st2{display:none;fill:#EC008C;stroke:#EC008C;stroke-miterlimit:10;}
	.st3{fill:#30271F;stroke:#30271F;stroke-width:2;stroke-miterlimit:10;}
</style>
<g id="Layer_2">
	<g>
		<path class="st0" d="M500.5,39.5c62.1,0,122.4,12.2,179,36.1c54.8,23.2,104,56.3,146.2,98.6s75.4,91.5,98.6,146.2
			c24,56.7,36.1,116.9,36.1,179s-12.2,122.4-36.1,179c-23.2,54.8-56.3,104-98.6,146.2s-91.5,75.4-146.2,98.6
			c-56.7,24-116.9,36.1-179,36.1s-122.4-12.2-179-36.1c-54.8-23.2-104-56.3-146.2-98.6s-75.4-91.5-98.6-146.2
			c-24-56.7-36.1-116.9-36.1-179s12.2-122.4,36.1-179c23.2-54.8,56.3-104,98.6-146.2s91.5-75.4,146.2-98.6
			C378.1,51.7,438.4,39.5,500.5,39.5 M500.5,4.5c-273.4,0-495,221.6-495,495s221.6,495,495,495s495-221.6,495-495
			S773.9,4.5,500.5,4.5L500.5,4.5z"/>
	</g>
</g>
<g id="Layer_1">
	<g>
		<rect x="492.5" y="184.5" class="st0" width="15" height="630"/>
		<polygon class="st0" points="517.5,174.5 482.5,174.5 482.5,824.5 517.5,824.5 517.5,174.5 		"/>
	</g>
	<g>
		<path class="st0" d="M259.2,609.3l130.5,0v130.5L259.2,609.3 M174.8,574.3l250,250v-250L174.8,574.3L174.8,574.3z"/>
	</g>
	<g>
		<path class="st0" d="M699.9,210.1c49.6,0,90,40.4,90,90s-40.4,90-90,90s-90-40.4-90-90S650.3,210.1,699.9,210.1 M699.9,175.1
			c-69,0-125,56-125,125c0,69,56,125,125,125s125-56,125-125C824.9,231.1,768.9,175.1,699.9,175.1L699.9,175.1z"/>
	</g>
	<line class="st1" x1="-3" y1="1002" x2="1000.5" y2="-1.5"/>
	<line class="st2" x1="0" y1="174.5" x2="996" y2="174.5"/>
	<line class="st2" x1="2" y1="824.5" x2="998" y2="824.5"/>
</g>
<g id="Layer_3">
	<g>
		<g>
			<path class="st3" d="M1363.6,339.6c-14.9,9.1-32.4,12-70.7,12h-16V454H1227V184.7h66.7c35.7,0,53.6,3.3,68.9,12.4
				c23.3,14.2,36.4,39.7,36.4,70.7C1399,298.8,1385.5,326.1,1363.6,339.6z M1293.7,232.4h-16.8v71.4h14.6c44.8,0,57.2-12,57.2-35.3
				C1348.7,240.1,1331.9,232.4,1293.7,232.4z"/>
			<path class="st3" d="M1578.6,454v-26.2c-19.3,21.9-38.6,31-67.1,31c-59,0-101.7-44.1-101.7-105c0-61.6,43-106.4,102.8-106.4
				c29.2,0,49.2,9.5,66,31.7v-27h44.5V454H1578.6z M1517.8,291.8c-34.6,0-59,26.2-59,63c0,35.3,24.4,59.4,59.8,59.4
				c36.8,0,58.7-26.2,58.7-59.8C1577.2,317.7,1552.4,291.8,1517.8,291.8z"/>
			<path class="st3" d="M1714.9,296.2V454h-48.5V296.2h-23.7v-44.1h23.7v-67.4h48.5v67.4h29.2v44.1H1714.9z"/>
			<path class="st3" d="M1817,341.8V454h-48.5V252.1h44.5v19.7c12.8-18.6,23-24.4,43.7-24.4h3.6V294
				C1831.2,294.8,1817,310.4,1817,341.8z"/>
			<path class="st3" d="M1885.1,454V252.1h48.5V454H1885.1z M1885.5,223v-48.5h48.5V223H1885.5z"/>
			<path class="st3" d="M2071.7,458.7c-59.8,0-107.9-47-107.9-105.7c0-59.4,46.6-105.7,106.4-105.7c45.9,0,86,25.9,101.7,72.2h-54.7
				c-9.8-18.6-25.1-27.7-47-27.7c-33.5,0-57.6,25.5-57.6,60.9s25.1,61.6,58.7,61.6c20,0,33.9-8,45.9-26.6h54.7
				C2155.1,432.9,2118.7,458.7,2071.7,458.7z"/>
			<path class="st3" d="M2323.1,454l-68.9-94.4V454h-48.5V184.7h48.5v162.5l64.5-95.1h57.9l-72.2,98.8l83.8,103.1H2323.1z"/>
		</g>
	</g>
	<g>
		<path class="st3" d="M1299.1,822.3c-39,0-70-23-74.7-68.5h49.9c3.3,13.5,11.3,20.4,23.7,20.4c16,0,24.1-11.7,24.1-35.3V548.2h49.9
			v192C1371.9,790.9,1344.2,822.3,1299.1,822.3z"/>
		<path class="st3" d="M1575.6,817.5v-26.2c-19.3,21.9-38.6,31-67.1,31c-59,0-101.7-44.1-101.7-105c0-61.6,43-106.4,102.8-106.4
			c29.2,0,49.2,9.5,66,31.7v-27h44.5v201.9H1575.6z M1514.8,655.4c-34.6,0-59,26.2-59,63c0,35.3,24.4,59.4,59.8,59.4
			c36.8,0,58.7-26.2,58.7-59.8C1574.2,681.2,1549.4,655.4,1514.8,655.4z"/>
		<path class="st3" d="M1755.3,822.3c-59.8,0-107.9-47-107.9-105.7c0-59.4,46.6-105.7,106.4-105.7c45.9,0,86,25.9,101.7,72.2h-54.7
			c-9.8-18.6-25.1-27.7-47-27.7c-33.5,0-57.6,25.5-57.6,60.9c0,35.3,25.1,61.6,58.7,61.6c20,0,33.9-8,45.9-26.6h54.7
			C1838.7,796.4,1802.3,822.3,1755.3,822.3z"/>
		<path class="st3" d="M2006.7,817.5l-68.9-94.4v94.4h-48.5V548.2h48.5v162.5l64.5-95.1h57.9l-72.2,98.8l83.8,103.1H2006.7z"/>
		<path class="st3" d="M2355.1,817.5V706.7c0-40.4-15.3-51.4-37.9-51.4c-27,0-40.8,14.6-40.8,62.7v99.5h-48.5V706.7
			c0-39.7-13.8-51.4-39.4-51.4c-28.1,0-39.4,14.9-39.4,62.7v99.5h-48.5V615.6h44.5v18.9c14.2-17.1,28.8-23.7,52.5-23.7
			c27.7,0,45.6,9.5,59.4,31.3c16.4-21.9,36.4-31.3,64.9-31.3c53.2,0,81.6,29.5,81.6,90v116.6H2355.1z"/>
		<path class="st3" d="M2603.3,817.5v-26.2c-19.3,21.9-38.6,31-67.1,31c-59,0-101.7-44.1-101.7-105c0-61.6,43-106.4,102.8-106.4
			c29.2,0,49.2,9.5,66,31.7v-27h44.5v201.9H2603.3z M2542.4,655.4c-34.6,0-59,26.2-59,63c0,35.3,24.4,59.4,59.8,59.4
			c36.8,0,58.7-26.2,58.7-59.8C2601.8,681.2,2577,655.4,2542.4,655.4z"/>
		<path class="st3" d="M2814.6,817.5v-98.8c0-53.9-14.6-63.4-38.6-63.4c-15.3,0-28.1,6.6-35.7,18.6c-6.2,9.8-8,21.5-8,48.5v95.1
			h-48.5V615.6h44.8v19.3c17.9-17.1,33.9-24.1,56.8-24.1c28.1,0,49.9,10.2,63,29.2c10.9,15.7,14.6,33.2,14.6,69.2v108.2H2814.6z"/>
	</g>
</g>
</svg>
